<?xml version="1.0" standalone="no"?><!DOCTYPE svg PUBLIC "-//W3C//DTD SVG 1.1//EN" "http://www.w3.org/Graphics/SVG/1.1/DTD/svg11.dtd"><svg class="icon" width="200px" height="200.00px" viewBox="0 0 1024 1024" version="1.1" xmlns="http://www.w3.org/2000/svg"><path d="M170.666667 426.666667c-46.933333 0-85.333333 38.4-85.333333 85.333333 0 46.933333 38.4 85.333333 85.333333 85.333333s85.333333-38.4 85.333333-85.333333C256 465.066667 217.6 426.666667 170.666667 426.666667zM853.333333 426.666667c-46.933333 0-85.333333 38.4-85.333333 85.333333 0 46.933333 38.4 85.333333 85.333333 85.333333s85.333333-38.4 85.333333-85.333333C938.666667 465.066667 900.266667 426.666667 853.333333 426.666667zM512 426.666667c-46.933333 0-85.333333 38.4-85.333333 85.333333 0 46.933333 38.4 85.333333 85.333333 85.333333s85.333333-38.4 85.333333-85.333333C597.333333 465.066667 558.933333 426.666667 512 426.666667z" fill="#bfbfbf" /></svg>